<svg width="32" height="32" viewBox="0 0 32 32" fill="none" xmlns="http://www.w3.org/2000/svg">
<path d="M26.6667 7.99998C24.2123 7.99998 22.2223 9.98998 22.2223 12.4444C22.2223 14.2689 23.3228 15.8322 24.8951 16.5172V20.8894C24.8951 24.07 22.1034 26.6672 18.6728 26.6672C15.3395 26.6672 12.6006 24.2172 12.4562 21.1544C16.4501 20.3222 19.5556 16.7389 19.5556 12.3944V3.81054C19.5556 3.17831 19.1028 2.62276 18.4845 2.50498L14.9889 1.80429C14.2667 1.65845 13.5701 2.12462 13.4245 2.84706L13.2445 3.72165C13.0987 4.44387 13.5674 5.14331 14.2895 5.28942L15.9945 5.62604V12.3722C15.9945 15.31 13.6539 17.7405 10.7095 17.7683C7.74394 17.7961 5.33117 15.4039 5.33117 12.4389L5.32728 5.63165L7.03394 5.29209C7.75617 5.1532 8.22339 4.45043 8.07728 3.7282L7.90561 2.85387C7.76672 2.13165 7.06394 1.66442 6.34172 1.81054L2.84894 2.49942C2.23061 2.62442 1.77783 3.17165 1.77783 3.81054V12.4439C1.77783 16.7355 4.8395 20.3328 8.8945 21.155C9.03894 26.1833 13.3667 30.2222 18.6667 30.2222C24.0556 30.2222 28.4445 26.035 28.4445 20.8889V16.5166C30.0128 15.83 31.1112 14.2689 31.1112 12.4472C31.1112 9.98887 29.1223 7.99998 26.6667 7.99998ZM26.6667 13.7778C25.9306 13.7778 25.3334 13.1805 25.3334 12.4444C25.3334 11.7083 25.9278 11.1111 26.6667 11.1111C27.4056 11.1111 28.0001 11.7055 28.0001 12.4444C28.0001 13.1833 27.4056 13.7778 26.6667 13.7778Z" fill="#212121"/>
</svg>
